<svg width="20" height="20" viewBox="0 0 20 20" fill="none" xmlns="http://www.w3.org/2000/svg">
<path d="M2.5 15.418V4.16797C2.5 2.78726 3.61929 1.66797 5 1.66797H16.6667C17.1269 1.66797 17.5 2.04107 17.5 2.5013V17.5013C17.5 17.9616 17.1269 18.3346 16.6667 18.3346H5.41667C3.80583 18.3346 2.5 17.0288 2.5 15.418ZM15.8333 16.668V14.168H5.41667C4.72631 14.168 4.16667 14.7276 4.16667 15.418C4.16667 16.1083 4.72631 16.668 5.41667 16.668H15.8333ZM4.16667 12.782C4.54552 12.602 4.96933 12.5013 5.41667 12.5013H15.8333V3.33464H5C4.53977 3.33464 4.16667 3.70774 4.16667 4.16797V12.782Z" fill="white"/>
</svg>
